<?xml version="1.0" encoding="utf-8"?>
<!-- Generator: Adobe Illustrator 16.0.0, SVG Export Plug-In . SVG Version: 6.00 Build 0)  -->
<!DOCTYPE svg PUBLIC "-//W3C//DTD SVG 1.1//EN" "http://www.w3.org/Graphics/SVG/1.1/DTD/svg11.dtd">
<svg version="1.1" id="Layer_1" xmlns="http://www.w3.org/2000/svg" xmlns:xlink="http://www.w3.org/1999/xlink" x="0px" y="0px"
	 width="640px" height="480px" viewBox="0 0 640 480" enable-background="new 0 0 640 480" xml:space="preserve">
<g>
	<g>
		<path fill="#FFFFFF" d="M432.822,281.075c1.043,0.652,2.298,1.37,2.841,2.352c-0.374-0.677,0.227-3.055-0.3-1.07
			c0.568-1.694,0.299-1.122-0.81,1.717c0.546-1.03,0.532-0.976-0.042,0.163c-0.756,1.54-1.682,3.035-2.719,4.396
			c-6.143,8.063,4.009,20.204,13.061,16.99c1.34-0.476,2.049-0.287,4.048-0.215c-1.99-7.347-3.979-14.694-5.97-22.041
			c-5.636,3.358-11.868,2.979-16.512-0.986c-1.126-0.962-2.197-2.026-3.209-3.108c-0.439-0.483-0.867-0.978-1.284-1.48
			c1.771,2.087-0.532-0.757-0.717-1.021c-1.1-1.573-2.026-3.252-2.871-4.972c0.534,1.299,0.568,1.287,0.103-0.034
			c-0.992-3.06-0.074,2.509-0.057-0.423c-0.004,2.083-0.697,3.811-2.08,5.183c0.23-0.202,0.462-0.403,0.693-0.604
			c-1.915,1.862-4.144,2.819-6.687,2.868c-2.402-0.424-2.917-0.48-1.544-0.17c2.527,0.61-2.79-1.396-0.195-0.115
			c1.404,0.692,2.707,1.593,3.987,2.485c1.137,0.84,1.106,0.806-0.091-0.104c0.857,0.676,1.681,1.395,2.504,2.11
			c2.699,2.346,5.204,4.917,7.576,7.589c0.419,0.478,0.83,0.961,1.234,1.451c1.989,2.375-1.597-2.206,0.032,0.059
			c0.595,0.826,1.119,1.697,1.55,2.618c5.85-5.849,11.698-11.697,17.547-17.547c-15.662-7.376-25.797-23.01-40.877-32.729
			c-3.467-2.235-7.244-3.908-11.278-4.763c-1.502-0.319-3.004-0.605-4.493-0.984c-3.781-1.347-1.99,0.716,5.371,6.187
			c-0.027,1.673-0.055,3.347-0.082,5.02c-8.266,5.885-10.469,8.281-6.609,7.189c-4.7,1.196,1.801,0.707-2.227,0.118
			c1.544,0.226,3.057,0.662,4.547,1.111c0.604,0.19,1.202,0.395,1.796,0.612c2.995,1.063-2.501-1.184,0.187,0.069
			c1.364,0.636,4.028,3.065,0.693,0.076c5.205-6.746,10.41-13.491,15.615-20.237c-3.704-1.631-7.38-3.276-10.878-5.321
			c-0.774-0.467-1.53-0.961-2.268-1.485c0.851,0.646,0.704,0.477-0.438-0.507c-1.028-1.137-1.167-1.244-0.415-0.32
			c-1.819-2.56,0.165,1.538-0.627-1.561c-1.274-4.987-6.869-10.104-12.353-9.405c-6.152,0.785-9.845,2.333-13.46,7.541
			c-0.431,1.02-0.86,2.039-1.291,3.058c-0.73,1.842-0.313,1.048,1.256-2.382c-1.273,1.146-2.29,2.823-3.442,4.109
			c-0.094,0.104-3.089,2.612-1.243,1.307c-1.195,0.845-1.314,0.834-3.542,1.336c2.373-0.534-3.816-0.627-0.168,0.125
			c0.828,0.249,1.512,0.71,2.05,1.382c-0.965-1.013-1.069-1.051-0.313-0.115c-2.166-3.021-2.313-4.028-3.163-6.583
			c-0.574-1.723-0.94-3.504-1.268-5.287c0.37,2.017,0.02-2.705,0.031-3.244c0.077-3.883-0.565,1.985,0.311-1.75
			c0.507-1.452,0.524-1.648,0.051-0.589c0.381-0.791,0.813-1.553,1.298-2.285c-0.657,0.807-0.458,0.625,0.598-0.546
			c0.701-0.619,1.383-1.259,2.045-1.92c-0.933,0.904-3.299,0.658-0.222,1.041c6.819,0.849,12.71-6.397,12.653-12.654
			c-0.002-0.297-0.005-0.594-0.008-0.891c-0.055-6.081-3.922-10.101-9.284-12.194c-17.675-6.899-31.518,6.062-35.114,22.68
			c-1.429,6.603-1.849,13.5-1.296,20.226c0.145,1.76,0.256,3.521,0.331,5.285c0.03,0.857,0.038,1.715,0.025,2.572
			c-0.001,0.278-0.431,4.279,0.005,1.522c-0.141,0.771-0.326,1.531-0.559,2.28c0.771-2.779-1.118,1.564,0.541-0.564
			c-1.048,0.976-1.11,1.134-0.188,0.475c-1.139,0.851-2.485,1.396-3.781,1.947c4.272,0,8.544,0,12.816,0
			c-7.566-3.84-15.648-3.724-23.636-6.002c-0.716-0.204-3.418-1.458-0.339-0.026c-0.699-0.325-2.976-2.002-0.329,0.103
			c-0.718-0.571-2.028-2.635-0.281-0.057c-1.645-2.426,0.698,2.554-0.196-0.505c-0.925-3.168,0.028,2.517-0.072-1.242
			c-0.087-3.263-0.659,2.232,0.291-1.104c-0.699,2.456,1.62-1.288-0.169,0.67c-0.646,0.708-2.079,1.412-3.042,1.411
			c5.977,0.006,11.375-4.105,12.959-9.867c1.778-6.461-2.141-15.383-9.387-16.532c-10.382-1.647-18.692,1.434-24.551,10.372
			c-5.347,8.156-3.938,18.729,0.41,26.879c7.756,14.541,27.058,21.779,42.34,23.581c8.42,0.992,16.213,0.297,24.563-1.102
			c3.96-0.663,5.976-1.048,9.246-1.277c0.677-0.047,5.566,0.155,4.088-0.076c2.368,0.371,2.511,0.502,4.009,1.315
			c-1.008-0.547,1.629,1.451,1.727,1.554c-4.014-4.821-3.297-10.066,2.148-15.736c1.585-0.64,1.497-0.677-0.264-0.109
			c-4.156,1.17-6.343,1.152-11.01,1.347c-8.54,0.355-15.359-0.401-23.14-2.038c-7.545-1.588-15.276,2.112-17.415,9.888
			c-2.021,7.344,2.418,15.491,9.888,17.415c17.24,4.441,35.104,4.82,52.339,8.19c2.198,0.43,4.368,0.896,6.503,1.581
			c-3.462-1.112,0.724,1.126-2.379-1.533c-6.304-5.402-3.869-13.878,1.742-16.078c-1.059,0.415-2.204,0.625-3.313,0.855
			c-1.63,0.268-1.588,0.268,0.124,0c-0.831,0.084-1.663,0.156-2.496,0.216c-3.938,0.313-7.837,0.521-11.748,1.15
			c-6.118,0.985-13.028,4.047-18.403,4.723c-9.133,1.147-18.467-0.216-27.586-0.855c-16.703-1.173-31.687-1.13-46.182-9.891
			c-6.613-3.997-15.526-1.502-19.383,5.082c-3.947,6.738-1.513,15.393,5.082,19.383c19.229,11.633,40.529,12.372,62.271,13.908
			c11.738,0.828,23.116,1.884,34.758-0.641c4.896-1.062,9.524-2.968,14.483-3.808c3.894-0.658-2.322,0.047,0.782-0.258
			c1.969-0.193,3.951-0.276,5.925-0.413c10.865-0.756,19.694-3.045,26.489-12.089c3.887-5.172,3.02-12.607,0.213-17.929
			c-2.581-4.894-7.941-7.379-12.833-9.199c-8.528-3.175-18.605-3.728-27.521-4.832c-10.646-1.318-20.884-2.26-31.341-4.866
			c-2.509,9.101-5.019,18.202-7.527,27.303c16.141,3.267,35.863,5.388,51.702-0.467c10.265-3.793,17.566-15.028,11.17-25.535
			c-4.863-7.988-13.81-13.285-22.962-14.634c-9.568-1.409-18.732,0.333-28.175,1.938c-5.855,0.995-13.531,0.482-19.894-1.201
			c0.229,0.06-4.393-1.689-2.479-0.8c-1.427-0.663-2.838-1.338-4.231-2.072c-1.514-0.797-2.957-1.717-4.38-2.665
			c-1.313-0.934-1.421-1.012-0.325-0.233c-0.658-0.564-1.288-1.157-1.892-1.778c-2.74-2.695,1.072,1.959-0.935-1.214
			c-0.747-1.424-0.781-1.458-0.101-0.103c-0.374-1.584-0.401-1.607-0.08-0.067c-0.307,1.517-0.256,1.502,0.152-0.045
			c-0.157,0.829-0.558,1.517-1.203,2.063c-0.97,1.169-5.032,1.191-1.981,1.203c-1.191-8.799-2.382-17.599-3.573-26.399
			c-20.164,3.102-24.51,32.745-10.929,45.197c5.118,4.692,11.744,6.762,18.449,7.854c2.831,0.461,5.672,0.817,8.481,1.401
			c1.139,0.237,2.251,0.565,3.353,0.935c-1.753-0.797-2.028-0.899-0.825-0.308c3.114,1.577,6.342,2.227,9.783,1.28
			c9.494-2.612,16.672-11.175,18.679-20.597c1.599-7.51,0.235-14.834,0.279-22.375c0.008-1.248,0.08-2.494,0.161-3.739
			c0.045-0.679,0.64-4.997,0.114-1.531c0.199-1.314,0.489-2.61,0.799-3.902c0.2-0.832,1.997-5.574,0.598-2.398
			c0.48-1.09,1.104-2.103,1.766-3.09c-1.143,1.419-1.263,1.632-0.36,0.639c1.915-2.011-2.345,1.43,0.035,0.074
			c-1.804,0.69-2.045,0.834-0.722,0.432c-1.958,0.188-2.204,0.251-0.74,0.189c1.398,0.088,1.266,0.067-0.398-0.063
			c1.148,0.23,2.241,0.683,3.32,1.121c-3.095-4.064-6.189-8.129-9.284-12.194c-0.003,0.297-0.006,0.594-0.008,0.891
			c5.339-4.067,10.678-8.135,16.018-12.202c-7.8-1.113-13.933-0.096-20.126,4.954c-4.975,4.056-8.629,8.922-10.949,14.911
			c-4.441,11.463-1.638,23.76,3.154,34.564c5.275,11.895,16.104,17.662,28.829,15.257c6.343-1.199,11.83-4.255,16.503-8.67
			c1.6-1.511,2.924-3.339,4.293-5.053c1.127-1.408,2.455-2.67,3.434-4.246c0.43-1.019,0.859-2.038,1.29-3.057
			c0.526-1.393,0.449-1.112-0.234,0.841c-1.531,1.531-3.063,3.063-4.594,4.594c0.249-0.139,0.498-0.277,0.746-0.416
			c-2.154,0.583-4.31,1.166-6.464,1.748c0.409-0.05,0.818-0.1,1.228-0.149c-4.117-3.135-8.235-6.27-12.353-9.405
			c3.256,13.036,14.965,19.56,26.323,24.634c5.37,2.399,11.188,2.413,15.615-2.015c4.781-4.781,5.206-13.505,0-18.223
			c-6.523-5.912-16.538-9.238-25.281-9.238c-7.43,0-13.305,4.121-16.006,10.965c-2.771,7.022,1.43,15.519,7.624,19.014
			c2.538,1.433,5.437,2.126,8.261,2.694c1.108,0.224,2.211,0.45,3.312,0.713c3.317,0.79-3.279-1.73,0.582,0.277
			c5.428,2.822,8.281,5.65,13.012,10.107c9.38,8.836,18.459,18.38,30.302,23.931c11.919,5.587,23.154-5.618,17.547-17.547
			c-4.216-8.969-13.497-16.452-21.201-22.283c-4.453-3.371-9.771-5.937-15.414-6.249c-8.39-0.465-14.528,5.675-17.206,13.032
			c-4.531,12.451,7.37,25.603,15.579,33.263c11.644,10.864,32.365,14.333,45.6,4.264c4.293-3.266,6.974-7.767,5.436-13.357
			c-1.348-4.9-6.184-8.92-11.405-8.684c-3.411,0.154-6.992,0.319-10.196,1.566c4.742,4.742,9.484,9.484,14.227,14.227
			c0.635-2.304,1.497-4.5,1.963-6.854c0.475-2.399,0.599-4.184,0.194-6.617c0.522,3.146-0.429-2.645-0.663-3.421
			c-2.222-7.361-8.918-11.324-16.081-12.677C430.481,266.491,425.687,276.608,432.822,281.075L432.822,281.075z"/>
	</g>
</g>
<g>
	<g>
		<path fill="#FFFFFF" d="M326.726,291.12c2.528,3.739,5.523,5.075,10.013,5.219c7.23,0.23,10.644-7.7,7.763-13.527
			c-3.888-7.862-14.515-12.809-22.288-15.829c-8.047-3.126-16.708-4.633-25.242-5.646c-16.576-1.967-31.079-1.62-46.549-6.365
			c-6.483-1.989-12.478-5.467-17.85-10.096c-4.517-3.892-7.606-9.177-9.118-13.763c-0.506-1.535-0.853-3.116-1.17-4.698
			c0.521,2.599-0.116-1.949-0.134-2.529c-0.018-0.604,0.504-5.229,0.033-2.388c0.14-0.749,0.313-1.49,0.517-2.224
			c0.095-0.373,1.487-3.679,0.348-1.23c1.432-3.078,2.284-3.944,4.296-5.323c1.166-0.799,2.636-1.351,3.911-1.949
			c-0.996,0.454-0.784,0.422,0.636-0.095c0.411-0.099,0.822-0.197,1.233-0.295c-2.614,0.915-5.022-0.084-7.224-2.998
			c-0.563-2.08-1.125-4.16-1.688-6.239c2.197-2.378,4.395-4.756,6.592-7.134c-5.542,0.662-10.304,3.287-11.89,9.053
			c-1.496,5.438,0.953,11.002,5.667,13.925c18.971,11.763,54.843-0.865,43.218-27.223c-5.393-12.226-18.821-18.8-31.607-19.167
			c-11.68-0.335-23.84,4.929-33.013,11.843c-23.921,18.031-33.327,49.188-19.889,76.459c12.184,24.728,39.417,39.822,65.085,46.462
			c19.125,4.946,39.647,6.35,59.342,6.294c9.925-0.028,19.842-0.686,29.714-1.672c10.781-1.076,21.854-2.135,32.306-5.041
			c14.522-4.039,12.037-27.771-3.624-26.775c-15.821,1.006-31.417,4.033-47.306,4.794c-15.482,0.74-31,0.081-46.375-1.856
			c-11.682-1.472-25.688-5.214-34.466-9.367c-5.424-2.566-10.539-5.74-15.354-9.312c1.895,1.404-1.888-1.665-1.76-1.555
			c-1.135-0.978-2.212-2.02-3.289-3.061c-1.082-1.046-2.13-2.118-3.165-3.211c-0.685-0.737-1.354-1.489-2.008-2.254
			c-1.055-1.327-1.274-1.564-0.659-0.715c-4.023-5.23-6.078-9.283-7.644-15.048c-1.208-4.444-0.941-9.739,0.309-14.612
			c2.587-10.091,10.512-18.062,18.745-22.694c2.969-1.67,2.629-1.437,5.26-2.342c1.208-0.416,2.447-0.724,3.686-1.027
			c0.174-0.042,4.164-0.583,1.642-0.329c1.226-0.124,2.459-0.101,3.689-0.073c3.736,0.083-2.133-0.556,1.498,0.224
			c0.17,0.036,3.731,1.357,1.612,0.393c0.581,0.264,3.718,2.505,2.743,1.66c-0.099-0.086,2.708,3.07,1.625,1.576
			c0.394,0.543,1.626,3.626,0.639,0.832c0.774,2.192,0.125-1.787,0.237-2.486c-0.319,1.982,1.083-1.639,1.471-2.128
			c-0.568,0.717-2.518,1.867,0.035,0.141c-0.59,0.399-3.149,1.423-0.238,0.289c-0.881,0.344-1.808,0.563-2.725,0.785
			c-1.394,0.255-1.27,0.263,0.371,0.023c-0.662,0.066-1.326,0.108-1.991,0.126c-0.667,0.017-1.334,0.009-2-0.023
			c-3.303-0.101,2.558,0.549-0.636-0.063c-0.938-0.18-1.845-0.482-2.747-0.789c2.825,0.959,0.383,0.042-0.283-0.371
			c-2.075,7.659-4.149,15.318-6.224,22.978c8.649-1.033,14.513-4.901,17.668-13.178c3.305-8.669-4.462-16.514-11.843-19.097
			c-10.363-3.627-24.605,4.681-31.007,12.385c-15.209,18.303-8.575,43.937,5.721,60.539c15.522,18.025,40.022,23.074,62.517,24.909
			c10.541,0.859,21.101,1.333,31.607,2.608c3.017,0.366,9.159,1.962,13.304,3.142c5.284,1.502,10.272,5.05,15.576,6.037
			c-1.322-5.009-2.645-10.018-3.967-15.025c-0.091,0.041-0.181,0.083-0.271,0.124c2.03-0.266,4.062-0.531,6.092-0.797
			c-0.346-0.059-0.691-0.118-1.038-0.177C329.313,279.147,322.675,285.131,326.726,291.12L326.726,291.12z"/>
	</g>
</g>
<g>
	<g>
		<path fill="#FFFFFF" d="M212.144,206.342c0.344,5.84-1.897,13.156-2.86,19.833c-1.342,9.302,1.454,17.935,7.083,25.39
			c10.024,13.274,25.263,20.728,40.048,27.472c12.785,5.832,23.044-11.012,11.096-18.982c-10.877-7.256-25.752-12.64-32.906-22.188
			c-4.225-5.639-3.71-9.339-3.515-17.058c0.196-7.736-0.614-16.665-8.277-20.588C218.331,197.925,211.809,200.662,212.144,206.342
			L212.144,206.342z"/>
	</g>
</g>
<g>
	<g>
		<path fill="#B8BABC" d="M347.455,247.182c-1.35-3.791-3.813-7.032-5.188-10.821c-0.68-1.872-1.049-3.834-1.214-5.811
			c-0.143-1.698,1.132-2.284,2.313-3.387c1.131-1.056,2.226-2.09,3.316-3.19c1.118-0.976,1.184-1.058,0.195-0.247
			c0.578-0.483,1.192-0.915,1.843-1.295c-1.508,0.531-1.554,0.565-0.136,0.104c-0.927,0.254-1.855,0.268-2.787,0.04
			c-3.276-2.024-3.911-2.276-1.902-0.754c2.364,1.919,4.413,3.193,7.421,3.814c5.927,1.224,11.917-0.723,15.092-6.142
			c2.938-5.014,2.307-12.161-2.09-16.194c-6.521-5.984-13.94-9.575-22.864-6.629c-8.2,2.708-13.353,9.831-15.334,17.98
			c-0.81,3.332-0.568,7.638,0.735,10.816c1.301,3.173,1.607,6.419,2.248,9.788c1.229,6.467,5.186,14.283,11.195,17.428
			C343.802,254.517,348.982,251.471,347.455,247.182L347.455,247.182z"/>
	</g>
</g>
<g>
	<g>
		<path fill="#B8BABC" d="M345.181,249.623c-5.131-0.281-10.198-0.239-15.234-1.393c-5.095-1.167-9.784-3.467-14.26-6.101
			c-3.361-1.979-5.869-4.477-7.141-8.094c-1.024-2.912,0.15-3.162-1.932-0.508c-0.155,0.034-0.31,0.068-0.464,0.102
			c-4,0.766-3.72,0.798,0.838,0.096c2.632-0.724,4.737-2.178,6.61-4.115c5.224-5.402,4.373-12.492,0-17.979
			c-0.194-0.244-0.389-0.488-0.583-0.731c-3.962-4.972-11.474-4.62-16.55-2.136c-9.338,4.571-12.789,16.264-11.257,25.901
			c1.387,8.726,7.489,15.003,14.4,19.944c3.028,2.165,7.195,3.097,10.637,4.44c4.015,1.569,8.229,2.54,12.478,3.203
			c8.304,1.293,17.799,1.582,24.938-3.48C351.637,255.952,350.246,249.9,345.181,249.623L345.181,249.623z"/>
	</g>
</g>
<g>
	<g>
		<path fill="#B8BABC" d="M402.709,232.1c-6.384,0.603-11.879-0.838-18.085-2.089c-7.674-1.548-16.217-1.743-23.911-0.552
			c-7.72,1.196-15.604,6.484-21.966,10.781c-6.884,4.65-14.804,10.593-19.749,17.275c-4.769,6.445,0.346,15.776,7.224,17.756
			c7.643,2.2,15.006,4.624,22.837,5.996c9.722,1.702,19.701,0.538,28.875-3.049c7.938-3.104,14.457-7.717,19.87-14.311
			c2.564-3.123,4.905-6.432,7.282-9.696c2.318-3.185,5.137-6.105,7.189-9.729c2.772-4.892,2.054-11.122-1.951-15.127
			c-4.245-4.245-9.972-4.348-15.128-1.952c-8.765,4.074-17.054,9.475-26.328,12.29c-4.671,1.417-9.502,2.268-14.303,3.097
			c-5.732,0.989-12.188,1.294-17.059,4.75c-3.422,2.428-5.747,5.647-5.747,10.02c0,4.755,3.499,10.352,8.519,11.189
			c6.589,1.1,12.605-0.525,19.08-1.705c5.404-0.984,10.796-2.005,16.099-3.45c11.436-3.116,21.633-9.729,32.341-14.634
			c-5.693-5.692-11.387-11.386-17.079-17.079c-2.658,4.535-7.28,9.761-10.677,14.591c-2.492,3.544-5.8,6.779-10.332,8.558
			c-6.502,2.554-12.299,2.465-19.08,1.693c-7.223-0.823-13.822-4.46-21.195-5.195c3.885,5.1,7.771,10.2,11.655,15.3
			c0.113-0.408,0.227-0.817,0.339-1.227c-1.016,1.743-2.031,3.485-3.047,5.229c1.459-1.849,4.286-4.087,6.424-6.276
			c2.455-2.514,5.161-4.821,7.986-6.906c5.005-3.696,10.743-8.435,17.111-9.108c10.949-1.159,28.3,1.43,36.25-8.124
			C408.566,237.518,407.373,231.659,402.709,232.1L402.709,232.1z"/>
	</g>
</g>
<g>
	<g>
		<path fill="#636466" d="M438.134,215.136c-3.064,1.061-4.026,4.177-4.585,7.126c-0.531,2.799,4.756,3.651,6.469,3.906
			c0.89,0.132,1.801-0.365,2.311-1.068c3.484-4.812,3.757-15.576-2.714-18.153c-3.528-1.405-7.348-1.758-11.077-1.045
			c-3.761,0.72-5.89,5.162-9.781,5.147c-4.625-0.019-6.493-0.728-10.342,2.402c-3.084,2.508-4.371,6.698-3.61,10.481
			c0.987,4.907,6.311,6.779,10.445,8.105c7.393,2.372,12.654,5.089,13.943,13.437c0.441,2.86,0.042,5.853-0.254,8.705
			c-0.254,2.44-1.525,3.474-2.941,5.312c-3.074,3.992-4.236,8.859-4.432,13.785c-0.296,7.482,0.425,15.247,7.52,19.601
			c2.575,1.58,6.563,1.654,9.271,0.37c2.016-0.956,5.809-3.64,5.063-6.41c-0.545-2.024-2.572-4.231-4.966-3.519
			c-3.229,0.963-4.238,3.521-4.657,6.676c-0.485,3.653,5.086,4.117,5.65,0.535c0.185-1.168,0.061-5.648-2.265-3.674
			c-0.789,0.672-1.643,1.504-2.238,2.354c-2.149,3.07-6.447-1.133-7.889-2.912c-4.643-5.729-2.67-11.887-0.469-18.051
			c1.205-3.374,2.768-6.545,5.349-9.073c1.393-1.364,1.146-4.471,1.299-6.262c0.462-5.408-0.091-10.759-2.79-15.538
			c-2.71-4.798-7.98-7.69-12.667-10.158c-2.793-1.471-7.443-3.455-7.4-7.152c0.059-5.005,6.354-3.85,9.327-3.856
			c2.01-0.004,3.521-0.032,5.226-1.195c1.885-1.285,3.385-3.029,5.697-3.443c1.091-0.195,7.73,0.003,7.713,1.73
			c-0.033,3.332,0.97,6.234-0.456,9.472c0.645-0.538,1.289-1.075,1.934-1.613c-2.558,0.308-2.947,0.886-2.169-1.985
			c0.289-1.064,0.957-2.167,1.456-3.15C439.422,215.398,438.641,214.961,438.134,215.136L438.134,215.136z"/>
	</g>
</g>
<g>
	<g>
		<path fill="#636466" d="M422.561,279.313c0.815-0.726,3.295-5.433,2.937-5.463c-0.713-0.861-1.426-1.724-2.138-2.585
			c-0.138,2.293-0.515,4.439-1.048,6.678c0.807-0.507,1.613-1.014,2.419-1.521c-0.201,0.002-0.403,0.004-0.605,0.006
			c0.657,1.046,1.315,2.093,1.973,3.14c1.065-3.606,3.067-6.999,7.271-6.912c1.469,0.029,2.949-1.186,2.577-2.793
			c-1.212-5.23-6.875-9.654-10.322-3.348c1.369,0.718,2.738,1.435,4.108,2.152c1.522-4.318,3.133-8.053,3.183-12.7
			c-1.557,0.063-3.113,0.124-4.67,0.187c0.954,3.739,1.933,7.587,2.125,11.452c0.114,2.296,4.115,2.133,4.05-0.162
			c-0.116-4.106-1.243-8.032-1.53-12.108c-0.188-2.665-4.574-2.445-4.67,0.187c-0.152,4.175-1.541,7.619-2.874,11.522
			c-0.828,2.425,2.773,4.546,4.108,2.152c1.331-0.633,1.928-0.135,1.789,1.496c0.859-0.931,1.718-1.862,2.577-2.793
			c-6.299-0.434-10.445,4.391-12.108,10.045c-0.393,1.334,0.368,3.127,1.973,3.14c0.202,0.002,0.403,0.004,0.605,0.006
			c0.974,0.008,2.147-0.457,2.419-1.521c0.665-2.608,1.284-5.155,1.374-7.857c0.055-1.64-1.184-2.69-2.773-2.56
			c-4.279,0.354-4.217,6.68-3.939,9.73C421.419,279.438,422.17,279.66,422.561,279.313L422.561,279.313z"/>
	</g>
</g>
<g>
	<g>
		<path fill="#636466" d="M432.092,249.424c0.916-2.895,4.393-10.459,1.667-13.051c-2.128-2.022-5.11-4.124-7.795-5.299
			c-7.033-3.081-5.429-8.93-3.844-15.218c-0.678,0.426-1.356,0.853-2.034,1.279c0.201,0.001,0.403,0.002,0.604,0.003
			c-0.593-0.717-1.187-1.435-1.779-2.152c-0.462,4.897,0.024,9.596,0.657,14.453c1.01-0.643,2.02-1.286,3.028-1.929
			c-3.564-2.114-7.565-5.239-4.445-9.641c1.132-1.597,0.051-3.869-1.875-4.06c-7.034-0.697-11.404,6.578-6.636,12.097
			c4.632,5.362,9.026-4.142,10.519-7.231c1.556-3.221-3.544-5.758-5.463-2.862c-0.684,1.032-1.115,2.144-1.552,3.295
			c-0.331,0.874-0.679,1.729-1.15,2.538c0.356-0.128,0.714-0.256,1.071-0.384c0.164-1.743,1.071-2.51,2.723-2.3
			c-0.728-1.158-1.455-2.315-2.183-3.474c-1.895,6.894,0.786,11.612,6.763,15.207c1.47,0.884,3.243-0.193,3.028-1.929
			c-0.56-4.507-0.947-8.863-0.554-13.405c0.086-0.99-0.696-2.159-1.779-2.152c-0.202,0.001-0.404,0.002-0.606,0.003
			c-0.808,0.005-1.819,0.375-2.034,1.279c-2.061,8.682-0.642,13.363,5.573,19.397c1.62,1.573,7.197,3.417,6.787,5.953
			c-0.479,2.965-0.742,6.409-0.577,9.416C430.261,250.242,431.811,250.311,432.092,249.424L432.092,249.424z"/>
	</g>
</g>
<g>
	<g>
		<path fill="#636466" d="M437.157,221.239c0.314-0.362,0.898-0.638,1.285-0.892c-1.531-0.553-3.063-1.105-4.594-1.659
			c0.811,3.216,3.244,6.622,6.921,6.057c3.711-0.57,5.168-4.43,4.355-7.697c-0.794-3.191-2.895-5.912-5.839-7.333
			c-3.201-1.545-8.802-3.83-12.267-2.319c-1.723,0.751-2.029,3.451-0.374,4.463c1.776,1.085,4.033,1.071,6.026,1.639
			c1.411,0.401,3.921,0.95,4.964,2.077c0.887,0.958,1.535,2.229,1.773,3.507c-0.052-0.273,1.26,0.452,0.749-0.354
			c-0.494-0.779-0.819-1.611-1.39-2.349c-1.43-1.85-3.883-0.892-4.788,0.844c-0.723,1.385-0.822,2.918,0.236,4.154
			C435.057,222.356,436.38,222.133,437.157,221.239L437.157,221.239z"/>
	</g>
</g>
<g>
	<g>
		<path fill="#636466" d="M434.836,207.187c-0.504-2.32-1.99-3.392-4.094-4.421c-0.753-0.368-1.612-0.039-2.237,0.395
			c-1.449,1.006-2.578,2.392-3.681,3.754c-1.175,1.451-3.112,2.864-2.563,4.914c0.214,0.799,0.695,1.196,1.486,1.372
			c0.158,0.035,0.316,0.07,0.476,0.105c0.854,0.19,1.617-0.407,2.134-0.986c1.711-1.918,3.155-3.986,5.061-5.726
			c-0.556,0.175-1.112,0.35-1.668,0.524c1.48,0.326,2.911,0.602,4.39,0.825C434.546,208.004,434.922,207.583,434.836,207.187
			L434.836,207.187z"/>
	</g>
</g>
<g>
	<g>
		<path fill="#636466" d="M432.079,237.793c0.525,0.215,1.051,0.431,1.577,0.646c-0.156-0.887-0.313-1.774-0.47-2.661
			c-3.617,3.257-4.009,7.805-4.095,12.435c-0.05,2.622-0.028,5.157-0.472,7.751c-0.733,4.29-2.95,7.921-4.406,11.939
			c-0.661,1.824,1.671,2.791,2.823,1.479c3.566-4.063,4.614-9.462,5.204-14.691c0.601-5.329-1.584-12.486,2.971-16.526
			c1.357-1.204-0.053-3.274-1.685-2.607c-0.507,0.208-1.014,0.415-1.521,0.622C431.271,236.48,431.415,237.522,432.079,237.793
			L432.079,237.793z"/>
	</g>
</g>
<g>
	<g>
		<path fill="#231F20" d="M409.292,293.869c7.696,10.865,24.044,16.469,36.828,12.696c10.292-3.037,14.506-13.459,10.72-23.091
			c-2.05-5.216-6.536-9.246-11.573-11.431c-2.082-0.903-5.419-1.572-7.582-0.536c-1.815,0.869-4.473-0.393-6.562,0.433
			c-9.694,3.83-7.848,18.454,2.919,18.759c2.135,0.061,2.436-3.278,0.313-3.297c-5.127-0.045-7.857-4.603-6.101-9.189
			c0.77-2.008,2.761-3.263,4.735-3.789c1.576-0.419,3.479,0.88,4.849,0.168c4.881-2.538,10.369,1.657,13.508,5.151
			c2.881,3.208,4.426,7.442,4.359,11.728c-0.149,9.708-9.902,13.651-18.184,13.646c-10.504-0.009-19.569-5.25-26.86-12.407
			C409.835,291.897,408.62,292.92,409.292,293.869L409.292,293.869z"/>
	</g>
</g>
<g>
	<g>
		<path fill="#231F20" d="M437.539,215.162c-3.82,2.012-7.144,8.062-1.751,10.697c5.992,2.928,9.896-0.688,10.82-6.651
			c1.018-6.567-2.594-12.418-8.502-14.96c-1.783-0.767-6.805-2.438-8.601-1.536c-3.838,1.928-6.981,4.089-9.553,7.574
			c-0.863,1.17,0.992,2.469,1.846,1.292c2.283-3.147,6.153-7.123,10.398-6.625c3.751,0.44,7.306,1.687,9.887,4.534
			c2.521,2.781,2.833,7.075,2.32,10.59c-0.544,3.727-3.088,5.541-6.835,4.463c-5.807-1.671-1.593-6.723,0.704-8.243
			C438.922,215.868,438.215,214.806,437.539,215.162L437.539,215.162z"/>
	</g>
</g>
<g>
	<g>
		<path fill="#231F20" d="M438.341,215.536c-1.322-2.785-5.408-3.933-8.292-3.59c-3.848,0.458-6.388,2.674-8.132,6.072
			c-4.847,9.444,5.125,16.87,13.126,18.735c1.494,0.348,1.957-1.709,0.467-2.044c-6.799-1.531-13.661-5.613-12.871-13.463
			c0.349-3.465,3.509-6.648,6.776-7.392c3.165-0.72,5.51,0.995,8.094,2.386C437.977,216.49,438.604,216.088,438.341,215.536
			L438.341,215.536z"/>
	</g>
</g>
<g>
	<g>
		<path fill="#231F20" d="M436.57,236.905c17.129,2.145,26.715-18.141,18.51-32.014c-8.018-13.556-31.488-15.457-41.788-3.688
			c-0.841,0.96,0.762,2.419,1.651,1.505c9.74-10.005,28.004-8.778,36.893,1.63c5.055,5.918,4.492,13.997,1.851,20.814
			c-2.867,7.398-9.754,10.246-17.159,10.678C435.894,235.868,435.988,236.833,436.57,236.905L436.57,236.905z"/>
	</g>
</g>
<g>
	<g>
		<path fill="#231F20" d="M412.572,201.985c-9.308-4.58-18.43,1.299-20.229,11.047c-2.101,11.382,5.586,22.478,15.468,27.3
			c1.175,0.573,1.813-1.294,0.695-1.879c-8.242-4.314-14.151-12.726-14.357-22.125c-0.097-4.406,1.409-8.477,4.573-11.547
			c3.711-3.6,8.957-2.93,13.502-1.857C412.852,203.073,413.158,202.273,412.572,201.985L412.572,201.985z"/>
	</g>
</g>
<g>
	<g>
		<path fill="#231F20" d="M406.063,238.582c5.901,3.473,10.293,7.706,9.371,15.107c-0.913,7.341-8.446,10.621-14.407,13.174
			c-1.303,0.559-0.358,2.544,0.943,1.986c7.521-3.222,14.455-7.103,15.498-15.963c0.822-6.98-4.318-13.781-11.08-15.188
			C405.912,237.599,405.655,238.341,406.063,238.582L406.063,238.582z"/>
	</g>
</g>
<g>
	<g>
		<path fill="#231F20" d="M421.953,211.138c-8.797-8.283-24.063,4.943-17.335,15.036c3.587,5.381,12.059,6.436,17.144,9.819
			c10.14,6.748,3.667,22.177-0.209,30.411c-3.141,6.673-4.135,14.843,0.475,21.159c4.528,6.205,11.042,10.914,18.38,6.581
			c3.797-2.243,7.082-9.088,2.085-12.239c-5.726-3.612-9.083,3.615-8.709,8.537c0.101,1.326,2.167,0.968,2.041-0.359
			c-0.318-2.014,0.09-3.832,1.225-5.456c1.727,0.047,3.453,0.093,5.18,0.14c0.886,1.782,0.767,3.575-0.358,5.378
			c-2.776,4.165-8.17,4.545-12.107,2.192c-6.063-3.623-9.141-10.282-8.64-17.148c0.407-5.572,3.977-10.489,5.871-15.635
			c1.701-4.62,2.437-9.515,1.936-14.413c-0.926-9.049-7.78-12.308-15.178-15.465c-5.158-2.202-10.309-5.451-8.354-11.915
			c2.088-6.907,10.205-8.062,15.869-5.641C421.814,212.353,422.411,211.569,421.953,211.138L421.953,211.138z"/>
	</g>
</g>
<g>
	<g>
		<path fill="#231F20" d="M303.002,235.937c0.643,5.415,3.091,10.002,7.255,13.502c3.824,3.215,9.488,2.6,14.003,1.738
			c8.031-1.534,9.583-8.263,8.978-15.431c-0.653-7.733-3.439-15.556-1.604-23.309c1.009-4.26,4.08-8.915,7.238-11.848
			c4.931-4.579,12.534-7.85,19.223-6.153c4.039,1.024,6.454,5.355,4.935,9.231c-0.617,1.572-1.701,2.626-3.045,3.565
			c-1.286,0.899-6.884,2.841-7.176-0.32c-0.261-2.824-4.704-2.068-4.355,0.768c0.614,5.001,6.752,5.415,10.629,4.086
			c3.963-1.358,6.127-7.035,5.536-10.897c-2.075-13.58-17.504-8.714-25.264-3.383c-3.858,2.65-6.166,6.476-8.154,10.594
			c-3.556,7.364-2.015,14.777-0.557,22.515c1.148,6.094,2.76,14.624-3.92,18.04c-9.417,4.815-19.269-4.312-21.722-13.052
			C304.652,234.337,302.846,234.619,303.002,235.937L303.002,235.937z"/>
	</g>
</g>
<g>
	<g>
		<path fill="#231F20" d="M357.035,208.575c-1.597,0.576-2.855,0.063-3.981-1.093c0.123,0.393,0.247,0.785,0.37,1.178
			c0.087-2.542-1.035-4.402-3.432-5.329c-0.51-0.197-1.24-0.117-1.639,0.289c-1.021,1.041-2.374,2.818-1.631,4.385
			c0.63,1.328,2.671,2.657,3.999,3.105c1.655,0.559,2.637-1.547,1.364-2.603c-0.897-0.745-1.795-1.446-2.622-2.273
			c0.128,0.407,0.255,0.813,0.383,1.22c0.056-0.634,0.209-0.881,0.64-1.32c-0.546,0.096-1.093,0.192-1.639,0.289
			c1.012,0.391,1.22,0.857,1.383,1.888c0.168,1.064,0.712,1.793,1.787,2.159c1.937,0.659,4.068,0.42,5.661-0.899
			C358.232,209.113,357.646,208.355,357.035,208.575L357.035,208.575z"/>
	</g>
</g>
<g>
	<g>
		<path fill="#231F20" d="M349.569,210.008c-7.313,8.921-10.038,27.701,4.199,31.288c5.368,1.353,10.93-2.097,12.977-6.97
			c0.663-1.579,0.281-2.957,1.181-4.643c1.463-2.745,6.053-5.938,9.254-5.597c5.376,0.573,9.397,2.281,10.174,8.185
			c0.141,1.067,1.79,0.774,1.645-0.29c-0.745-5.441-3.901-8.055-9.104-9.275c-5.716-1.341-11.214,1.835-14.1,6.881
			c-0.455,0.794-0.553,1.564-0.677,2.445c-0.331,2.366-1.553,3.815-3.386,5.262c-5.058,3.994-11.923,1.249-14.723-3.943
			c-3.922-7.272,0.354-16.222,3.538-22.832C350.838,209.917,349.945,209.549,349.569,210.008L349.569,210.008z"/>
	</g>
</g>
<g>
	<g>
		<path fill="#231F20" d="M388.727,233.307c5.431,0.934,10.356,2.03,14.012,6.502c4.136,5.06,1.146,12.033-3.202,15.802
			c-3.427,2.97-8.795,2.685-12.531,0.573c-1.788-1.012-2.933-2.592-3.751-4.43c-0.73-1.642,1.368-8.602,3.841-5.48
			c0.632-1.211,1.264-2.422,1.896-3.633c-0.616-0.123-1.398-0.62-1.947-0.854c-1.735-0.743-3.654,1.757-2.185,3.119
			c1.256,1.164,2.021,1.802,3.714,2.14c2.029,0.406,2.991-2.25,1.896-3.633c-4.97-6.273-11.149,0.112-10.407,6.356
			c0.869,7.316,7.715,10.719,14.409,9.928c7.555-0.893,12.977-8.631,12.032-15.991c-1.004-7.825-10.81-12.327-17.821-11.542
			C387.996,232.241,388.119,233.203,388.727,233.307L388.727,233.307z"/>
	</g>
</g>
<g>
	<g>
		<path fill="#231F20" d="M409.892,293.803c-1.052-3.718-3.249-6.888-4.893-10.354c-2.336-4.929-1.864-9.994-2.371-15.187
			c-0.129-1.317-2.149-1.167-2.272,0.091c-0.946,9.655,4.037,17.766,8.538,25.769C409.168,294.61,410.063,294.409,409.892,293.803
			L409.892,293.803z"/>
	</g>
</g>
<g>
	<g>
		<path fill="#231F20" d="M401.25,267.334c-36.287,13.202-76.581,14.12-114.5,8.65c-19.302-2.784-42.295-6.452-56.998-20.348
			c-7.11-6.72-11.634-13.896-12.907-23.752c-1.217-9.417-1.112-22.008,6.479-28.878c0.583-0.527-0.059-1.658-0.778-1.205
			c-7.533,4.739-9.201,12.792-9.369,21.236c-0.188,9.459,1.601,18.476,7.284,26.181c13.146,17.821,35.65,23.139,56.15,27.186
			c20.191,3.985,41.028,5.16,61.569,4.469c21.428-0.721,43.849-3.656,63.566-12.496C402.436,268.068,401.938,267.084,401.25,267.334
			L401.25,267.334z"/>
	</g>
</g>
<g>
	<g>
		<path fill="#231F20" d="M225.058,212.17c-8.572,14.7,6.02,32.025,17.768,39.615c14.604,9.434,32.922,13.397,49.869,16.01
			c30.792,4.748,66.434,3.882,95.566-8.178c1.914-0.792,0.531-3.695-1.379-2.902c-26.449,10.969-57.917,11.884-86.086,9.769
			c-16.538-1.242-32.863-4.741-48.083-11.417c-7.352-3.225-14.544-7.146-19.823-13.333c-6.987-8.188-7.516-18.759-6-28.889
			C227.034,211.87,225.566,211.298,225.058,212.17L225.058,212.17z"/>
	</g>
</g>
<g>
	<g>
		<path fill="#231F20" d="M319.322,267.972c-15.44-5.518-33.173-18.347-30.463-36.891c0.999-6.833,6.59-12.347,13.686-12.206
			c12.395,0.247,4.141,20.073-3.571,12.472c-1.938-1.911-5.032,0.586-3.268,2.771c7,8.671,17.633-1.687,14.706-10.521
			c-2.365-7.134-11.676-7.403-17.175-3.888c-8.636,5.52-8.199,17.753-4.438,26.012c5.498,12.073,18.03,19.383,30.161,23.229
			C319.599,269.152,319.958,268.199,319.322,267.972L319.322,267.972z"/>
	</g>
</g>
<g>
	<g>
		<path fill="#231F20" d="M408.043,291.769c-27.627,12.442-58.403,16.647-88.445,17.723c-25.893,0.927-51.409-2.404-76.005-10.548
			c-19.893-6.586-41.131-16.865-51.713-35.932c-11.693-21.069-9.73-51.198,4.324-70.568c10.148-13.986,29.315-23.346,46.543-19.162
			c18.098,4.395,29,26.585,14.032,40.813c-6.063,5.764-14.713,6.354-22.208,3.417c-7.398-2.899-11.91-11.302-8.732-18.88
			c3.521-8.399,22.114-6.896,17.409,4.287c0.548-0.457,1.095-0.914,1.643-1.371c-1.478,0.142-0.232-3.583-0.278-4.941
			c-0.069-2.021-0.997-4.027-2.33-5.514c-1.201-1.339-3.741,0.116-2.747,1.774c2.333,3.892-1.996,7.79,0.31,11.291
			c1.352,2.052,3.615,1.896,5.791,1.625c0.75-0.093,1.379-0.689,1.643-1.371c4.917-12.675-10.753-18.136-19.786-11.677
			c-5.432,3.884-5.856,11.418-3.816,17.198c2.653,7.517,12.491,11.489,19.87,11.162c9.018-0.4,16.33-6.028,19.791-14.265
			c3.646-8.675,1.047-18.145-4.535-25.229c-13.72-17.415-39.996-13.157-55.633-1.207c-18.73,14.313-24.937,38.381-21.974,60.917
			c2.749,20.91,15.804,36.526,33.478,47.182c17.461,10.527,37.726,15.718,57.572,19.532c29.454,5.66,60.073,4.106,89.618-0.082
			c8.398-1.191,16.68-3.044,24.831-5.374c7.648-2.186,15.669-4.149,22.794-7.759C411.421,293.83,410.027,290.875,408.043,291.769
			L408.043,291.769z"/>
	</g>
</g>
</svg>
